inDegrees=no
num_controls=7
num_derivatives=13
num_iterations=176
num_multipliers=7
num_parameters=0
num_slacks=7
num_states=26
objective=0.509258
objective_accelerations=0.041921
objective_balance=0.003646
objective_effort=0.029993
objective_height=0.321226
objective_ligament=0.112472
solver_duration=2664.040659
status=Solve_Succeeded
success=true
DataType=double
version=3
OpenSimVersion=4.5
endheader
time	/jointset/ground_pelvis/pelvis_tilt/value	/jointset/ground_pelvis/pelvis_tx/value	/jointset/ground_pelvis/pelvis_ty/value	/jointset/hip_l/hip_flexion_l/value	/jointset/hip_l/hip_adduction_l/value	/jointset/hip_l/hip_rotation_l/value	/jointset/back/lumbar_extension/value	/jointset/patellofemoral_l/patellar_flexion_l/value	/jointset/knee_l/knee_flexion_l/value	/jointset/knee_l/knee_adduction_l/value	/jointset/knee_l/knee_rotation_l/value	/jointset/ankle_l/ankle_angle_l/value	/jointset/subtalar_l/subtalar_angle_l/value	/jointset/ground_pelvis/pelvis_tilt/speed	/jointset/ground_pelvis/pelvis_tx/speed	/jointset/ground_pelvis/pelvis_ty/speed	/jointset/hip_l/hip_flexion_l/speed	/jointset/hip_l/hip_adduction_l/speed	/jointset/hip_l/hip_rotation_l/speed	/jointset/back/lumbar_extension/speed	/jointset/patellofemoral_l/patellar_flexion_l/speed	/jointset/knee_l/knee_flexion_l/speed	/jointset/knee_l/knee_adduction_l/speed	/jointset/knee_l/knee_rotation_l/speed	/jointset/ankle_l/ankle_angle_l/speed	/jointset/subtalar_l/subtalar_angle_l/speed	/forceset/tau_hip_flexion_l	/forceset/tau_hip_adduction_l	/forceset/tau_hip_rotation_l	/forceset/tau_knee_flexion_l	/forceset/tau_ankle_angle_l	/forceset/tau_subtalar_angle_l	/forceset/tau_lumbar_extension	lambda_cid13_p0	lambda_cid13_p1	lambda_cid13_p2	lambda_cid13_p3	lambda_cid13_p4	lambda_cid13_p5	lambda_cid14_p0	/jointset/ground_pelvis/pelvis_tilt/accel	/jointset/ground_pelvis/pelvis_tx/accel	/jointset/ground_pelvis/pelvis_ty/accel	/jointset/hip_l/hip_flexion_l/accel	/jointset/hip_l/hip_adduction_l/accel	/jointset/hip_l/hip_rotation_l/accel	/jointset/back/lumbar_extension/accel	/jointset/patellofemoral_l/patellar_flexion_l/accel	/jointset/knee_l/knee_flexion_l/accel	/jointset/knee_l/knee_adduction_l/accel	/jointset/knee_l/knee_rotation_l/accel	/jointset/ankle_l/ankle_angle_l/accel	/jointset/subtalar_l/subtalar_angle_l/accel	gamma_cid13_p0	gamma_cid13_p1	gamma_cid13_p2	gamma_cid13_p3	gamma_cid13_p4	gamma_cid13_p5	gamma_cid14_p0
1.5	-0.01215886447014857	-0.02697148708122537	0.8686217194818819	0.6379797045580629	-0.2953897381905184	-0.191213598565877	-0.7865032114894452	0.6447262134937431	0.6447262134937566	-0.06654347866459757	-0.1703806248093307	0.07609634148930275	0.02675837798171776	0.4380604629668595	0.2409894745148278	0.3602384144798486	-1.906895634746389	0.1881392053206062	-0.6261803964160781	0.8602878224162801	-1.73405863482895	-1.734058634829047	0.06222296097648518	-0.01652038875733343	-0.3105859212948727	0.1000914094080714	-0.2122445992860492	0.03637967749449773	-0.007691289172055334	-0.1808345407363582	0.09238793444448283	0.03442085735472812	0.2865543866886135	-12.86565699425022	-14.25865142942224	3.603498486528856	-8.933949946145525	-670.4695113026399	-66.59748078175764	-19.69866707766014	0.2145206499327448	0.7174431673725038	-0.5424520795243388	-0.5764828943025671	0.5379084211539449	0.1318189550375303	1.966159054204002	-0.1835344822091808	-0.1835344822091875	-0.06615692464980313	-0.02488791728527709	0.4430740509627361	0.6911084239811882	2.058672837989447e-07	7.467247345508703e-07	-9.067343954212469e-07	3.28842866836852e-08	2.261175863087543e-07	2.537213531601143e-07	2.119160753880452e-07
1.51	-0.007768015954108985	-0.02452602427812514	0.8721963464718588	0.6188838033099562	-0.2934828107320269	-0.1974678433310137	-0.7778039269456484	0.6273783277435794	0.6273783277435685	-0.06592712105016965	-0.1705478603864134	0.07301265174048445	0.02779231448955553	0.4400414074372644	0.2480684653196147	0.3546205171931355	-1.912022685700301	0.1931997864517815	-0.6245728551975465	0.8793993010756463	-1.735281793199954	-1.735281793199913	0.06098834761362524	-0.01691916158424957	-0.3061077258776086	0.1066578137541231	-0.2033205590292526	0.03472736058121684	-0.00767891843051286	-0.1795261042495681	0.09429653338463716	0.03332733736425694	0.2783625803961403	-12.04926091085011	-13.95581442094079	3.588495200578126	-8.923296908983769	-666.2121955949472	-66.65770001403807	-20.21365202996411	0.1797274148915987	0.6979402758677038	-0.5813783853106694	-0.4415024192819161	0.4831665875056717	0.1897865922024287	1.858174481823801	-0.05624119388244814	-0.05624119386175479	-0.1610538576687688	-0.04642729601561382	0.4568665946338326	0.6336780903242992	2.083122158984624e-07	7.68160202283125e-07	-9.14844755489635e-07	3.215823013204136e-08	2.422637884083511e-07	2.711003314021966e-07	2.138851269905056e-07
1.52	-0.003359388779506441	-0.02201080891921009	0.8757128105225557	0.5997444943076379	-0.2915266707365475	-0.2037030997065779	-0.7689186211732532	0.610025303473834	0.61002530347381	-0.06532489763246931	-0.170718894757895	0.06997507880734317	0.02889076937093508	0.4416161946795623	0.254939985677792	0.3486058266238328	-1.915577185588072	0.1979817127192205	-0.6223827185013598	0.8974920681358549	-1.735086338744414	-1.735086338744234	0.05939612162817665	-0.01728014763599716	-0.3013625581593215	0.1129950841164604	-0.1943965187724692	0.03307504366791428	-0.007666547688903931	-0.1782176677627799	0.09620513232478724	0.0322338173737597	0.2701707741036616	-11.23420366368911	-13.65424219698023	3.57540692620048	-8.954147545408601	-662.0009924101341	-66.76474959580477	-20.70110146680878	0.1332892043114295	0.6759490780505107	-0.6218107360422884	-0.2619726810744816	0.4821774484066804	0.2483380505685497	1.762416734372487	0.1001880830997704	0.1001880830997704	-0.1376794491675394	-0.01733056225154597	0.4964685111672626	0.6452816272382729	2.098193076039227e-07	7.836926742989181e-07	-9.18670088706926e-07	3.086110765971767e-08	2.580705138899749e-07	2.865977953469706e-07	2.146493294750046e-07
1.53	0.001062912410211259	-0.01942804767477853	0.8791671944553349	0.5805775847230288	-0.2895241821323757	-0.2099136267643157	-0.7598578517836887	0.5926812728843797	0.5926812728843783	-0.06474042217487903	-0.1708933317166884	0.06698612672844655	0.03005132601746857	0.4427698502882951	0.2615635490233952	0.342208661307282	-1.917524667374443	0.202461545343099	-0.6196308925811584	0.9144556071301942	-1.733479388390057	-1.733479388390116	0.05743743034624637	-0.01759982331120065	-0.2963973116092299	0.1190659996192806	-0.1850873998030522	0.03118096286782394	-0.007657234828741465	-0.1772903003967263	0.09829450384354521	0.03096747062046977	0.2616053473141353	-10.37978026456832	-13.27915874637428	3.544492432746653	-8.8411892454472	-657.8466143383151	-66.8073036166455	-21.15786247775328	0.09529456992775985	0.6482584224689442	-0.6579578660527076	-0.1191026152491368	0.4227187818682376	0.3025850555063028	1.632392085082725	0.2269643536038965	0.2269643535680985	-0.2341028676744961	-0.03836317548769636	0.5011643370942265	0.5804399393252018	2.103299438906971e-07	7.929532133659711e-07	-9.179425808949266e-07	2.895722764667165e-08	2.735165454650023e-07	3.000961503508543e-07	2.141333797716698e-07
1.54	0.005494528322169687	-0.01678051110496039	0.8825557490476303	0.5613996069829862	-0.2874785286794726	-0.2160938395243004	-0.750633633083557	0.5753605149668658	0.5753605149668924	-0.0641773614100887	-0.1710707808533052	0.06404774943708286	0.03127108050453439	0.443479139127975	0.2678950507551069	0.3354399585271167	-1.917790816674044	0.2066146824665804	-0.6163198589505448	0.9301819302492633	-1.730431804355688	-1.730431804355985	0.05511318306556566	-0.01788258319972028	-0.2912476006525742	0.1248346522229533	-0.1757782808336513	0.02928688206771088	-0.007647921968522413	-0.1763629330306763	0.1003838753622979	0.02970112386715247	0.2530399205246023	-9.526790349410529	-12.90481880178344	3.514833332962435	-8.766843176757215	-653.7344759340129	-66.89453521632363	-21.58088768490623	0.04441585050092347	0.6175367552721688	-0.6961182287651935	0.07429381627952271	0.416838348327243	0.360179592651063	1.514973559318506	0.3883148191023398	0.3883148191023461	-0.2107906489176225	-0.009947404914753006	0.5333613924800098	0.5848290474087622	2.09765260041147e-07	7.960629041718448e-07	-9.122016574634941e-07	2.655225522959306e-08	2.881298333228276e-07	3.111767569784602e-07	2.123191630226347e-07
1.55	0.00993099852591591	-0.01407123260783228	0.8858748206219077	0.5422274278325987	-0.2853930279005799	-0.2222382080715865	-0.7412586295382344	0.5580774208496886	0.558077420849674	-0.06363935400388301	-0.1712508195164679	0.06116168230708324	0.03254693389422444	0.4437372750130495	0.2738999265448498	0.3283174413460466	-1.916350838362135	0.2104231858961757	-0.6124646925303864	0.9445837084662387	-1.72593918295107	-1.725939182951231	0.0524266296150632	-0.01811753694742963	-0.2859438563648738	0.1302756042626743	-0.1662174404550655	0.02716335975322353	-0.00764156722523057	-0.1758067977779407	0.1026849782800918	0.02828356588725503	0.244260875317192	-8.630892696338304	-12.46688653816108	3.46882792262648	-8.589051327912198	-649.814472078796	-66.93394325888291	-21.96722814059929	0.00488655054315602	0.5828590544163061	-0.7287938363157479	0.2229986281234835	0.3535095537448461	0.411763601695615	1.367519400682789	0.5168697863722417	0.5168697863926929	-0.3067490425599846	-0.02931319634990766	0.5322059588577888	0.5146438665009623	2.079616203823537e-07	7.920857480680991e-07	-9.006844073401064e-07	2.356993721656393e-08	3.017836555934415e-07	3.194716969986157e-07	2.090091168513799e-07
1.56	0.01436772490711749	-0.01130372614008872	0.889120971949667	0.5230784782232218	-0.283271311444703	-0.2283413092676723	-0.7317466603211827	0.5408466797436016	0.5408466797435528	-0.06313004440205949	-0.1714330164844414	0.05832931762234837	0.03387537992116101	0.4435303746194284	0.2795406448781966	0.3208559092234897	-1.913144908471148	0.213857817864549	-0.6080663887103352	0.95757506459505	-1.719961202137223	-1.719961202137247	0.04937362218682219	-0.01831424416117274	-0.2805071115994647	0.1353531796722828	-0.1566566000764964	0.02503983743871287	-0.007635212481894238	-0.17525066252521	0.1049860811978794	0.02686600790732964	0.2354818301097756	-7.73663247394902	-12.02897647138821	3.42317975710859	-8.446499899908147	-645.934291990621	-67.01477013028293	-22.3141136932762	-0.04859140523810575	0.5447052639928942	-0.7639212170625338	0.4274841320950984	0.3420640560828372	0.4688070726296428	1.232889141685745	0.6853867009482417	0.6853867009482296	-0.2840814444653271	-0.002298098121478053	0.5599614880217005	0.5121537213862222	2.057459529681965e-07	7.813094955251549e-07	-8.830220711457261e-07	1.862676271392839e-08	3.180765014633108e-07	3.243041358044874e-07	2.041803731998703e-07
